# Blender 5.0.1
# www.blender.org
mtllib clé.mtl
o Grid
v 0.200000 0.000000 0.600000
v 0.000000 0.000000 0.400000
v 0.200000 0.000000 0.400000
v 0.000000 0.000000 0.200000
v 0.000000 0.000000 0.000000
v -0.200000 0.000000 -0.200000
v 0.000000 0.000000 -0.200000
v 0.200000 0.000000 -0.200000
v -0.400000 0.000000 -0.400000
v 0.200000 0.000000 -0.400000
v -0.400000 0.000000 -0.600000
v -0.200000 0.000000 -0.600000
v 0.200000 0.000000 -0.600000
v -0.200000 0.000000 -0.800000
v 0.000000 0.000000 -0.800000
v 0.000000 0.000000 0.700000
v -0.100000 0.000000 0.600000
v 0.200000 0.000000 0.700000
v 0.100000 0.000000 0.600000
v -0.100000 0.000000 0.400000
v 0.200000 0.000000 0.500000
v 0.100000 0.000000 0.400000
v 0.000000 0.000000 0.300000
v -0.100000 0.000000 0.200000
v 0.000000 0.000000 0.100000
v -0.100000 0.000000 0.000000
v -0.200000 0.000000 -0.100000
v -0.300000 0.000000 -0.200000
v 0.000000 0.000000 -0.100000
v -0.100000 0.000000 -0.200000
v 0.100000 0.000000 -0.200000
v -0.400000 0.000000 -0.300000
v -0.200000 0.000000 -0.300000
v -0.300000 0.000000 -0.400000
v 0.200000 0.000000 -0.300000
v 0.300000 0.000000 -0.400000
v -0.400000 0.000000 -0.500000
v -0.300000 0.000000 -0.600000
v 0.200000 0.000000 -0.500000
v 0.100000 0.000000 -0.600000
v 0.300000 0.000000 -0.600000
v -0.200000 0.000000 -0.700000
v 0.000000 0.000000 -0.700000
v -0.100000 0.000000 -0.800000
v 0.200000 0.000000 -0.700000
v 0.100000 0.000000 -0.800000
v 0.100000 0.000000 -0.700000
v -0.100000 0.000000 -0.700000
v -0.300000 0.000000 -0.700000
v 0.300000 0.000000 -0.500000
v -0.300000 0.000000 -0.500000
v 0.300000 0.000000 -0.300000
v 0.100000 0.000000 -0.300000
v -0.300000 0.000000 -0.300000
v 0.100000 0.000000 -0.100000
v -0.100000 0.000000 -0.100000
v -0.100000 0.000000 0.100000
v -0.100000 0.000000 0.300000
v 0.100000 0.000000 0.500000
v -0.100000 0.000000 0.500000
v 0.100000 0.000000 0.700000
v -0.100000 0.000000 0.700000
v 0.000000 0.101878 0.700000
v 0.000000 0.101878 0.600000
v 0.200000 0.101878 0.700000
v 0.200000 0.101878 0.600000
v 0.100000 0.101878 0.600000
v 0.000000 0.101878 0.500000
v 0.000000 0.101878 0.400000
v 0.200000 0.101878 0.500000
v 0.200000 0.101878 0.400000
v 0.100000 0.101878 0.400000
v 0.000000 0.101878 0.300000
v 0.000000 0.101878 0.200000
v 0.000000 0.101878 0.100000
v 0.000000 0.101878 0.000000
v -0.200000 0.101878 -0.100000
v -0.200000 0.101878 -0.200000
v 0.000000 0.101878 -0.100000
v 0.000000 0.101878 -0.200000
v -0.100000 0.101878 -0.200000
v 0.100000 0.101878 -0.200000
v -0.400000 0.101878 -0.300000
v -0.400000 0.101878 -0.400000
v -0.300000 0.101878 -0.400000
v 0.200000 0.101878 -0.300000
v 0.200000 0.101878 -0.400000
v 0.300000 0.101878 -0.400000
v -0.400000 0.101878 -0.500000
v -0.400000 0.101878 -0.600000
v -0.300000 0.101878 -0.600000
v 0.200000 0.101878 -0.500000
v 0.200000 0.101878 -0.600000
v 0.300000 0.101878 -0.600000
v -0.200000 0.101878 -0.700000
v -0.200000 0.101878 -0.800000
v 0.000000 0.101878 -0.700000
v 0.000000 0.101878 -0.800000
v -0.100000 0.101878 -0.800000
v 0.100000 0.101878 -0.800000
v -0.100000 0.101878 0.600000
v -0.100000 0.101878 0.400000
v -0.100000 0.101878 0.200000
v -0.100000 0.101878 0.000000
v -0.300000 0.101878 -0.200000
v 0.200000 0.101878 -0.200000
v -0.200000 0.101878 -0.300000
v -0.200000 0.101878 -0.600000
v 0.100000 0.101878 -0.600000
v 0.200000 0.101878 -0.700000
v 0.100000 0.101878 -0.700000
v -0.100000 0.101878 -0.700000
v -0.300000 0.101878 -0.700000
v 0.300000 0.101878 -0.500000
v -0.300000 0.101878 -0.500000
v 0.300000 0.101878 -0.300000
v 0.100000 0.101878 -0.300000
v -0.300000 0.101878 -0.300000
v 0.100000 0.101878 -0.100000
v -0.100000 0.101878 -0.100000
v -0.100000 0.101878 0.100000
v -0.100000 0.101878 0.300000
v 0.100000 0.101878 0.500000
v -0.100000 0.101878 0.500000
v 0.100000 0.101878 0.700000
v -0.100000 0.101878 0.700000
vn -1.0000 -0.0000 -0.0000
vn 1.0000 -0.0000 -0.0000
vn -0.0000 -0.0000 -1.0000
vn -0.0000 -0.0000 1.0000
vn -0.0000 -1.0000 -0.0000
vn -0.0000 1.0000 -0.0000
vt 0.350000 0.650000
vt 0.350000 0.600000
vt 0.650000 0.750000
vt 0.650000 0.800000
vt 0.350000 0.800000
vt 0.300000 0.800000
vt 0.350000 0.700000
vt 0.450000 0.250000
vt 0.450000 0.200000
vt 0.350000 0.850000
vt 0.550000 0.900000
vt 0.500000 0.900000
vt 0.550000 0.600000
vt 0.600000 0.600000
vt 0.450000 0.300000
vt 0.450000 0.450000
vt 0.450000 0.400000
vt 0.550000 0.250000
vt 0.600000 0.250000
vt 0.450000 0.850000
vt 0.500000 0.850000
vt 0.450000 0.500000
vt 0.300000 0.750000
vt 0.400000 0.900000
vt 0.450000 0.900000
vt 0.550000 0.850000
vt 0.400000 0.850000
vt 0.400000 0.800000
vt 0.300000 0.700000
vt 0.350000 0.750000
vt 0.300000 0.650000
vt 0.500000 0.600000
vt 0.450000 0.600000
vt 0.400000 0.650000
vt 0.400000 0.600000
vt 0.550000 0.800000
vt 0.600000 0.850000
vt 0.600000 0.800000
vt 0.600000 0.700000
vt 0.600000 0.750000
vt 0.650000 0.700000
vt 0.650000 0.650000
vt 0.600000 0.650000
vt 0.500000 0.350000
vt 0.500000 0.400000
vt 0.550000 0.650000
vt 0.550000 0.550000
vt 0.500000 0.550000
vt 0.450000 0.550000
vt 0.400000 0.550000
vt 0.600000 0.150000
vt 0.550000 0.150000
vt 0.500000 0.150000
vt 0.450000 0.150000
vt 0.450000 0.350000
vt 0.500000 0.500000
vt 0.500000 0.450000
vt 0.500000 0.300000
vt 0.550000 0.300000
vt 0.600000 0.300000
vt 0.550000 0.200000
vt 0.600000 0.200000
vt 0.500000 0.200000
vt 0.500000 0.250000
s 0
f 54/1/1 28/2/1 105/2/1 118/1/1
f 50/3/2 41/4/2 94/4/2 114/3/2
f 38/5/3 11/6/3 90/6/3 91/5/3
f 54/1/2 34/7/2 85/7/2 118/1/2
f 60/8/1 17/9/1 101/9/1 124/8/1
f 49/10/1 38/5/1 91/5/1 113/10/1
f 46/11/3 15/12/3 98/12/3 100/11/3
f 31/13/4 8/14/4 106/14/4 82/13/4
f 20/15/1 60/8/1 124/8/1 102/15/1
f 57/16/1 24/17/1 103/17/1 121/16/1
f 59/18/4 21/19/4 70/19/4 123/18/4
f 48/20/4 43/21/4 97/21/4 112/20/4
f 26/22/1 57/16/1 121/16/1 104/22/1
f 11/6/1 37/23/1 89/23/1 90/6/1
f 14/24/5 44/25/5 15/12/5 46/11/5 47/26/5 43/21/5 48/20/5 42/27/5
f 38/5/5 49/10/5 42/27/5 12/28/5
f 9/29/5 37/23/5 11/6/5 38/5/5 51/30/5 34/7/5 54/1/5 32/31/5
f 44/25/3 14/24/3 96/24/3 99/25/3
f 7/32/3 30/33/3 81/33/3 80/32/3
f 28/2/5 54/1/5 33/34/5 6/35/5
f 42/27/4 48/20/4 112/20/4 95/27/4
f 40/36/5 47/26/5 45/37/5 13/38/5
f 10/39/5 39/40/5 13/38/5 41/4/5 50/3/5 36/41/5 52/42/5 35/43/5
f 23/44/2 4/45/2 74/45/2 73/44/2
f 31/13/5 53/46/5 35/43/5 8/14/5
f 6/35/5 30/33/5 7/32/5 31/13/5 55/47/5 29/48/5 56/49/5 27/50/5
f 18/51/5 61/52/5 16/53/5 62/54/5 17/9/5 60/8/5 20/15/5 58/55/5 24/17/5 57/16/5 26/22/5 56/49/5 29/48/5 5/56/5 25/57/5 4/45/5 23/44/5 2/58/5 22/59/5 3/60/5 21/19/5 59/18/5 19/61/5 1/62/5
f 5/56/2 29/48/2 79/48/2 76/56/2
f 19/61/2 59/18/2 123/18/2 67/61/2
f 35/43/3 53/46/3 117/46/3 86/43/3
f 28/2/4 6/35/4 78/35/4 105/2/4
f 14/24/1 42/27/1 95/27/1 96/24/1
f 45/37/3 47/26/3 111/26/3 110/37/3
f 1/62/3 19/61/3 67/61/3 66/62/3
f 53/46/1 31/13/1 82/13/1 117/46/1
f 43/21/4 47/26/4 111/26/4 97/21/4
f 8/14/2 35/43/2 86/43/2 106/14/2
f 47/26/1 40/36/1 109/36/1 111/26/1
f 126/54/6 63/53/6 64/63/6 101/9/6
f 125/52/6 65/51/6 66/62/6 67/61/6
f 124/8/6 68/64/6 69/58/6 102/15/6
f 123/18/6 70/19/6 71/60/6 72/59/6
f 122/55/6 73/44/6 74/45/6 103/17/6
f 121/16/6 75/57/6 76/56/6 104/22/6
f 120/49/6 79/48/6 80/32/6 81/33/6
f 112/20/6 97/21/6 98/12/6 99/25/6
f 97/21/6 111/26/6 100/11/6 98/12/6
f 109/36/6 93/38/6 110/37/6 111/26/6
f 95/27/6 112/20/6 99/25/6 96/24/6
f 91/5/6 108/28/6 95/27/6 113/10/6
f 92/40/6 114/3/6 94/4/6 93/38/6
f 87/39/6 88/41/6 114/3/6 92/40/6
f 89/23/6 115/30/6 91/5/6 90/6/6
f 84/29/6 85/7/6 115/30/6 89/23/6
f 86/43/6 116/42/6 88/41/6 87/39/6
f 82/13/6 106/14/6 86/43/6 117/46/6
f 83/31/6 118/1/6 85/7/6 84/29/6
f 105/2/6 78/35/6 107/34/6 118/1/6
f 79/48/6 119/47/6 82/13/6 80/32/6
f 77/50/6 120/49/6 81/33/6 78/35/6
f 104/22/6 76/56/6 79/48/6 120/49/6
f 103/17/6 74/45/6 75/57/6 121/16/6
f 102/15/6 69/58/6 73/44/6 122/55/6
f 68/64/6 123/18/6 72/59/6 69/58/6
f 64/63/6 67/61/6 123/18/6 68/64/6
f 101/9/6 64/63/6 68/64/6 124/8/6
f 63/53/6 125/52/6 67/61/6 64/63/6
f 4/45/2 25/57/2 75/57/2 74/45/2
f 36/41/2 50/3/2 114/3/2 88/41/2
f 42/27/3 49/10/3 113/10/3 95/27/3
f 32/31/4 54/1/4 118/1/4 83/31/4
f 9/29/1 32/31/1 83/31/1 84/29/1
f 33/34/3 54/1/3 118/1/3 107/34/3
f 21/19/2 3/60/2 71/60/2 70/19/2
f 13/38/1 39/40/1 92/40/1 93/38/1
f 22/59/3 2/58/3 69/58/3 72/59/3
f 12/28/2 42/27/2 95/27/2 108/28/2
f 55/47/2 31/13/2 82/13/2 119/47/2
f 2/58/2 23/44/2 73/44/2 69/58/2
f 41/4/3 13/38/3 93/38/3 94/4/3
f 15/12/3 44/25/3 99/25/3 98/12/3
f 37/23/1 9/29/1 84/29/1 89/23/1
f 29/48/4 55/47/4 119/47/4 79/48/4
f 18/51/2 1/62/2 66/62/2 65/51/2
f 13/38/2 45/37/2 110/37/2 93/38/2
f 10/39/1 35/43/1 86/43/1 87/39/1
f 6/35/1 27/50/1 77/50/1 78/35/1
f 16/53/4 61/52/4 125/52/4 63/53/4
f 38/5/4 12/28/4 108/28/4 91/5/4
f 56/49/1 26/22/1 104/22/1 120/49/1
f 24/17/1 58/55/1 122/55/1 103/17/1
f 61/52/4 18/51/4 65/51/4 125/52/4
f 27/50/4 56/49/4 120/49/4 77/50/4
f 58/55/1 20/15/1 102/15/1 122/55/1
f 51/30/2 38/5/2 91/5/2 115/30/2
f 17/9/1 62/54/1 126/54/1 101/9/1
f 30/33/3 6/35/3 78/35/3 81/33/3
f 34/7/2 51/30/2 115/30/2 85/7/2
f 39/40/1 10/39/1 87/39/1 92/40/1
f 52/42/2 36/41/2 88/41/2 116/42/2
f 3/60/3 22/59/3 72/59/3 71/60/3
f 31/13/3 7/32/3 80/32/3 82/13/3
f 40/36/4 13/38/4 93/38/4 109/36/4
f 6/35/2 33/34/2 107/34/2 78/35/2
f 62/54/4 16/53/4 63/53/4 126/54/4
f 35/43/4 52/42/4 116/42/4 86/43/4
f 47/26/2 46/11/2 100/11/2 111/26/2
f 25/57/2 5/56/2 76/56/2 75/57/2
