# Blender 5.0.0
# www.blender.org
mtllib fontaine.mtl
o Cube.001
v -5.029549 -1.392061 -4.996534
v -5.029549 0.416703 -4.996534
v 4.996533 -1.392061 5.029549
v 4.996533 0.416703 5.029549
v -5.013041 -1.392061 5.013041
v -5.013041 0.416703 5.013041
v 5.013041 -1.392061 -5.013041
v 5.013041 0.416703 -5.013041
v -0.016507 -1.392061 0.016507
v -2.014774 0.416703 -8.011309
v 8.011308 -1.392061 2.014775
v -2.014774 -1.392061 -8.011309
v 8.011308 0.416703 2.014775
v 2.998267 0.416703 -2.998267
v 2.998267 -1.392061 -2.998267
v -8.019562 0.416703 2.006520
v 2.006521 -1.392061 -8.019562
v -8.019562 -1.392061 2.006520
v 2.006521 0.416703 -8.019562
v -3.023028 0.416703 -2.990013
v -3.023028 -1.392061 -2.990013
v -0.008254 -1.392061 -6.004787
v -0.008254 0.416703 -6.004787
v -2.006521 -1.392061 8.019562
v 8.019562 0.416703 -2.006520
v 2.990013 0.416703 3.023028
v 2.990013 -1.392061 3.023028
v -2.006521 0.416703 8.019562
v 8.019562 -1.392061 -2.006520
v 6.004787 0.416703 0.008254
v 6.004787 -1.392061 0.008254
v -8.027816 -1.392061 -1.998267
v 1.998266 0.416703 8.027816
v -8.027816 0.416703 -1.998267
v 1.998266 -1.392061 8.027816
v -3.014775 -1.392061 3.014774
v -3.014775 0.416703 3.014774
v -6.021295 0.416703 0.008254
v -6.021295 -1.392061 0.008254
v -0.008254 -1.392061 6.021295
v -0.008254 0.416703 6.021295
vn -0.0000 1.0000 -0.0000
vn -0.0000 -1.0000 -0.0000
vn 0.7071 -0.0000 0.7071
vn -0.7071 -0.0000 -0.7071
vn 0.7071 -0.0000 -0.7071
vn -0.7071 -0.0000 0.7071
vn -0.0021 -0.0000 -1.0000
vn -1.0000 -0.0000 0.0021
vn -0.0021 -0.0000 1.0000
vn 1.0000 -0.0000 0.0021
vt 0.687672 0.687500
vt 0.750343 0.687500
vt 0.750343 0.750000
vt 0.687672 0.750000
vt 0.187328 0.687500
vt 0.249657 0.687500
vt 0.249657 0.750000
vt 0.187328 0.750000
vt 0.375000 0.812672
vt 0.625000 0.812672
vt 0.625000 0.875343
vt 0.375000 0.875343
vt 0.375000 0.312328
vt 0.625000 0.312328
vt 0.625000 0.374657
vt 0.375000 0.374657
vt 0.187328 0.562500
vt 0.249657 0.562500
vt 0.249657 0.625000
vt 0.187328 0.625000
vt 0.812672 0.562500
vt 0.875000 0.562500
vt 0.875000 0.625000
vt 0.812672 0.625000
vt 0.312328 0.562500
vt 0.375000 0.562500
vt 0.375000 0.625000
vt 0.312328 0.625000
vt 0.625000 0.562500
vt 0.625000 0.625000
vt 0.375000 0.062500
vt 0.625000 0.062500
vt 0.625000 0.125000
vt 0.375000 0.125000
vt 0.687672 0.562500
vt 0.687672 0.625000
vt 0.312328 0.687500
vt 0.312328 0.750000
vt 0.625000 0.437328
vt 0.375000 0.437328
vt 0.249657 0.500000
vt 0.312328 0.500000
vt 0.687672 0.500000
vt 0.750343 0.500000
vt 0.750343 0.562500
vt 0.187328 0.500000
vt 0.625000 0.187500
vt 0.375000 0.187500
vt 0.625000 0.687500
vt 0.875000 0.687500
vt 0.812672 0.687500
vt 0.375000 0.687500
vt 0.125000 0.625000
vt 0.125000 0.687500
vt 0.812672 0.500000
vt 0.125000 0.562500
vt 0.812672 0.750000
vt 0.625000 0.937672
vt 0.375000 0.937672
vt 0.000000 0.000000
s 0
f 30/1/1 26/2/1 4/3/1 13/4/1
f 40/5/2 27/6/2 3/7/2 35/8/2
f 11/9/3 13/10/3 4/11/3 3/12/3
f 32/13/4 34/14/4 2/15/4 1/16/4
f 39/17/2 21/18/2 9/19/2 36/20/2
f 38/21/1 16/22/1 6/23/1 37/24/1
f 22/25/2 17/26/2 7/27/2 15/28/2
f 17/26/5 19/29/5 8/30/5 7/27/5
f 24/31/6 28/32/6 6/33/6 5/34/6
f 21/18/2 22/25/2 15/28/2 9/19/2
f 19/29/1 23/35/1 14/36/1 8/30/1
f 27/6/2 31/37/2 11/38/2 3/7/2
f 1/16/4 2/15/4 10/39/4 12/40/4
f 1/41/2 12/42/2 22/25/2 21/18/2
f 10/43/1 2/44/1 20/45/1 23/35/1
f 32/46/2 1/41/2 21/18/2 39/17/2
f 5/34/6 6/33/6 16/47/6 18/48/6
f 9/19/2 15/28/2 31/37/2 27/6/2
f 8/30/1 14/36/1 30/1/1 25/49/1
f 36/20/2 9/19/2 27/6/2 40/5/2
f 37/24/1 6/23/1 28/50/1 41/51/1
f 15/28/2 7/27/2 29/52/2 31/37/2
f 7/27/5 8/30/5 25/49/5 29/52/5
f 5/53/2 36/20/2 40/5/2 24/54/2
f 2/44/1 34/55/1 38/21/1 20/45/1
f 18/56/2 39/17/2 36/20/2 5/53/2
f 26/2/1 41/51/1 33/57/1 4/3/1
f 3/12/3 4/11/3 33/58/3 35/59/3
f 12/40/7 10/39/7 19/29/7 17/26/7
f 18/48/8 16/47/8 34/14/8 32/13/8
f 24/31/9 35/59/9 33/58/9 28/32/9
f 11/9/10 29/52/10 25/49/10 13/10/10
f 38/21/1 34/55/1 16/47/1
f 13/10/1 25/49/1 30/1/1
f 41/51/1 28/32/1 33/57/1
f 23/35/1 19/29/1 10/39/1
f 39/17/2 18/48/2 32/46/2
f 24/31/2 40/5/2 35/59/2
f 31/37/2 29/52/2 11/9/2
f 22/25/2 12/40/2 17/26/2
f 30/60/4 31/60/4 27/60/4 40/60/4 41/60/4 26/60/4
f 23/60/6 22/60/6 15/60/6 31/60/6 30/60/6 14/60/6
f 22/60/3 23/60/3 20/60/3 38/60/3 39/60/3 21/60/3
f 38/60/5 37/60/5 41/60/5 40/60/5 36/60/5 39/60/5
o Cube
v -0.890012 -1.600190 0.890012
v -0.890012 8.261173 0.890012
v -0.890012 -1.600190 -0.890012
v -0.890012 8.261173 -0.890012
v 0.890012 -1.600190 0.890012
v 0.890012 8.261173 0.890012
v 0.890012 -1.600190 -0.890012
v 0.890012 8.261173 -0.890012
vn -1.0000 -0.0000 -0.0000
vn -0.0000 -0.0000 -1.0000
vn 1.0000 -0.0000 -0.0000
vn -0.0000 -0.0000 1.0000
vn -0.0000 -1.0000 -0.0000
vn -0.0000 1.0000 -0.0000
vt 0.375000 0.000000
vt 0.625000 0.000000
vt 0.625000 0.250000
vt 0.375000 0.250000
vt 0.625000 0.500000
vt 0.375000 0.500000
vt 0.625000 0.750000
vt 0.375000 0.750000
vt 0.625000 1.000000
vt 0.375000 1.000000
vt 0.125000 0.500000
vt 0.125000 0.750000
vt 0.875000 0.500000
vt 0.875000 0.750000
s 0
f 42/61/11 43/62/11 45/63/11 44/64/11
f 44/64/12 45/63/12 49/65/12 48/66/12
f 48/66/13 49/65/13 47/67/13 46/68/13
f 46/68/14 47/67/14 43/69/14 42/70/14
f 44/71/15 48/66/15 46/68/15 42/72/15
f 49/65/16 45/73/16 43/74/16 47/67/16
o Cube.002
v -3.122162 4.835907 0.010281
v -3.122162 5.632472 0.010281
v 3.122162 4.835907 0.010281
v 3.122162 5.632472 0.010281
v -0.000000 4.835907 3.122162
v -0.000000 5.632472 3.122162
v 0.000000 4.835907 -3.122162
v 0.000000 5.632472 -3.122162
v -0.000000 4.835907 0.010281
v -3.122162 5.632472 -1.867345
v 3.122162 4.835907 -1.867344
v -3.122162 4.835907 -1.867345
v 3.122162 5.632472 -1.867344
v 0.000000 5.632472 -1.867345
v 0.000000 4.835907 -1.867345
v -1.872485 5.632472 3.122162
v -1.872485 4.835907 -3.122162
v -1.872485 4.835907 3.122162
v -1.872485 5.632472 -3.122162
v -1.872485 5.632472 0.010281
v -1.872485 4.835907 0.010281
v -1.872485 4.835907 -1.867345
v -1.872485 5.632472 -1.867345
v 1.872485 4.835907 3.122162
v 1.872485 5.632472 -3.122162
v 1.872485 5.632472 0.010281
v 1.872485 4.835907 0.010281
v 1.872485 5.632472 3.122162
v 1.872485 4.835907 -3.122162
v 1.872485 5.632472 -1.867344
v 1.872485 4.835907 -1.867344
v -3.122162 4.835907 1.877625
v 3.122162 5.632472 1.877626
v -3.122162 5.632472 1.877625
v 3.122162 4.835907 1.877626
v -0.000000 4.835907 1.877625
v -0.000000 5.632472 1.877625
v -1.872485 5.632472 1.877625
v -1.872485 4.835907 1.877625
v 1.872485 4.835907 1.877626
v 1.872485 5.632472 1.877626
vn -0.0000 1.0000 -0.0000
vn -0.0000 -1.0000 -0.0000
vn 1.0000 -0.0000 -0.0000
vn -1.0000 -0.0000 -0.0000
vn -0.0000 -0.0000 -1.0000
vn -0.0000 -0.0000 1.0000
vn -0.7086 -0.0000 -0.7057
vn -0.7056 -0.0000 0.7086
vn 0.7056 -0.0000 0.7086
vn 0.7086 -0.0000 -0.7057
vt 0.687672 0.687500
vt 0.750343 0.687500
vt 0.750343 0.750000
vt 0.687672 0.750000
vt 0.187328 0.687500
vt 0.249657 0.687500
vt 0.249657 0.750000
vt 0.187328 0.750000
vt 0.375000 0.812672
vt 0.625000 0.812672
vt 0.625000 0.875343
vt 0.375000 0.875343
vt 0.375000 0.312328
vt 0.625000 0.312328
vt 0.625000 0.374657
vt 0.375000 0.374657
vt 0.187328 0.562500
vt 0.249657 0.562500
vt 0.249657 0.625000
vt 0.187328 0.625000
vt 0.812672 0.562500
vt 0.875000 0.562500
vt 0.875000 0.625000
vt 0.812672 0.625000
vt 0.312328 0.562500
vt 0.375000 0.562500
vt 0.375000 0.625000
vt 0.312328 0.625000
vt 0.625000 0.562500
vt 0.625000 0.625000
vt 0.375000 0.062500
vt 0.625000 0.062500
vt 0.625000 0.125000
vt 0.375000 0.125000
vt 0.687672 0.562500
vt 0.687672 0.625000
vt 0.312328 0.687500
vt 0.312328 0.750000
vt 0.625000 0.437328
vt 0.375000 0.437328
vt 0.249657 0.500000
vt 0.312328 0.500000
vt 0.687672 0.500000
vt 0.750343 0.500000
vt 0.750343 0.562500
vt 0.187328 0.500000
vt 0.625000 0.187500
vt 0.375000 0.187500
vt 0.625000 0.687500
vt 0.875000 0.687500
vt 0.812672 0.687500
vt 0.375000 0.687500
vt 0.125000 0.625000
vt 0.125000 0.687500
vt 0.812672 0.500000
vt 0.125000 0.562500
vt 0.812672 0.750000
vt 0.625000 0.937672
vt 0.375000 0.937672
vt 0.000000 0.000000
s 0
f 79/75/17 75/76/17 53/77/17 62/78/17
f 89/79/18 76/80/18 52/81/18 84/82/18
f 60/83/19 62/84/19 53/85/19 52/86/19
f 81/87/20 83/88/20 51/89/20 50/90/20
f 88/91/18 70/92/18 58/93/18 85/94/18
f 87/95/17 65/96/17 55/97/17 86/98/17
f 71/99/18 66/100/18 56/101/18 64/102/18
f 66/100/21 68/103/21 57/104/21 56/101/21
f 73/105/22 77/106/22 55/107/22 54/108/22
f 70/92/18 71/99/18 64/102/18 58/93/18
f 68/103/17 72/109/17 63/110/17 57/104/17
f 76/80/18 80/111/18 60/112/18 52/81/18
f 50/90/20 51/89/20 59/113/20 61/114/20
f 50/115/18 61/116/18 71/99/18 70/92/18
f 59/117/17 51/118/17 69/119/17 72/109/17
f 81/120/18 50/115/18 70/92/18 88/91/18
f 54/108/22 55/107/22 65/121/22 67/122/22
f 58/93/18 64/102/18 80/111/18 76/80/18
f 57/104/17 63/110/17 79/75/17 74/123/17
f 85/94/18 58/93/18 76/80/18 89/79/18
f 86/98/17 55/97/17 77/124/17 90/125/17
f 64/102/18 56/101/18 78/126/18 80/111/18
f 56/101/21 57/104/21 74/123/21 78/126/21
f 54/127/18 85/94/18 89/79/18 73/128/18
f 51/118/17 83/129/17 87/95/17 69/119/17
f 67/130/18 88/91/18 85/94/18 54/127/18
f 75/76/17 90/125/17 82/131/17 53/77/17
f 52/86/19 53/85/19 82/132/19 84/133/19
f 61/114/23 59/113/23 68/103/23 66/100/23
f 67/122/24 65/121/24 83/88/24 81/87/24
f 73/105/25 84/133/25 82/132/25 77/106/25
f 60/83/26 78/126/26 74/123/26 62/84/26
f 87/95/17 83/129/17 65/121/17
f 62/84/17 74/123/17 79/75/17
f 90/125/17 77/106/17 82/131/17
f 72/109/17 68/103/17 59/113/17
f 88/91/18 67/122/18 81/120/18
f 73/105/18 89/79/18 84/133/18
f 80/111/18 78/126/18 60/83/18
f 71/99/18 61/114/18 66/100/18
f 79/134/20 80/134/20 76/134/20 89/134/20 90/134/20 75/134/20
f 72/134/22 71/134/22 64/134/22 80/134/22 79/134/22 63/134/22
f 71/134/19 72/134/19 69/134/19 87/134/19 88/134/19 70/134/19
f 87/134/21 86/134/21 90/134/21 89/134/21 85/134/21 88/134/21
o Cube.003
v -1.423742 8.265078 -1.414396
v -1.423742 8.777094 -1.414396
v 1.414396 8.265078 1.423742
v 1.414396 8.777094 1.423742
v -1.419069 8.265078 1.419069
v -1.419069 8.777094 1.419069
v 1.419069 8.265078 -1.419069
v 1.419069 8.777094 -1.419069
v -0.004673 8.265078 0.004673
v -0.570333 8.777094 -2.267805
v 2.267805 8.265078 0.570333
v -0.570333 8.265078 -2.267805
v 2.267805 8.777094 0.570333
v 0.848736 8.777094 -0.848736
v 0.848736 8.265078 -0.848736
v -2.270141 8.777094 0.567997
v 0.567997 8.265078 -2.270141
v -2.270141 8.265078 0.567997
v 0.567997 8.777094 -2.270141
v -0.855745 8.777094 -0.846399
v -0.855745 8.265078 -0.846399
v -0.002336 8.265078 -1.699808
v -0.002336 8.777094 -1.699808
v -0.567997 8.265078 2.270141
v 2.270141 8.777094 -0.567997
v 0.846399 8.777094 0.855745
v 0.846399 8.265078 0.855745
v -0.567997 8.777094 2.270141
v 2.270141 8.265078 -0.567997
v 1.699808 8.777094 0.002337
v 1.699808 8.265078 0.002337
v -2.272477 8.265078 -0.565660
v 0.565660 8.777094 2.272478
v -2.272477 8.777094 -0.565660
v 0.565660 8.265078 2.272478
v -0.853409 8.265078 0.853409
v -0.853409 8.777094 0.853409
v -1.704481 8.777094 0.002336
v -1.704481 8.265078 0.002336
v -0.002337 8.265078 1.704481
v -0.002337 8.777094 1.704481
vn -0.0000 1.0000 -0.0000
vn -0.0000 -1.0000 -0.0000
vn 0.7071 -0.0000 0.7071
vn -0.7071 -0.0000 -0.7071
vn 0.7071 -0.0000 -0.7071
vn -0.7071 -0.0000 0.7071
vn -0.0021 -0.0000 -1.0000
vn -1.0000 -0.0000 0.0021
vn -0.0021 -0.0000 1.0000
vn 1.0000 -0.0000 0.0021
vt 0.687672 0.687500
vt 0.750343 0.687500
vt 0.750343 0.750000
vt 0.687672 0.750000
vt 0.187328 0.687500
vt 0.249657 0.687500
vt 0.249657 0.750000
vt 0.187328 0.750000
vt 0.375000 0.812672
vt 0.625000 0.812672
vt 0.625000 0.875343
vt 0.375000 0.875343
vt 0.375000 0.312328
vt 0.625000 0.312328
vt 0.625000 0.374657
vt 0.375000 0.374657
vt 0.187328 0.562500
vt 0.249657 0.562500
vt 0.249657 0.625000
vt 0.187328 0.625000
vt 0.812672 0.562500
vt 0.875000 0.562500
vt 0.875000 0.625000
vt 0.812672 0.625000
vt 0.312328 0.562500
vt 0.375000 0.562500
vt 0.375000 0.625000
vt 0.312328 0.625000
vt 0.625000 0.562500
vt 0.625000 0.625000
vt 0.375000 0.062500
vt 0.625000 0.062500
vt 0.625000 0.125000
vt 0.375000 0.125000
vt 0.687672 0.562500
vt 0.687672 0.625000
vt 0.312328 0.687500
vt 0.312328 0.750000
vt 0.625000 0.437328
vt 0.375000 0.437328
vt 0.249657 0.500000
vt 0.312328 0.500000
vt 0.687672 0.500000
vt 0.750343 0.500000
vt 0.750343 0.562500
vt 0.187328 0.500000
vt 0.625000 0.187500
vt 0.375000 0.187500
vt 0.625000 0.687500
vt 0.875000 0.687500
vt 0.812672 0.687500
vt 0.375000 0.687500
vt 0.125000 0.625000
vt 0.125000 0.687500
vt 0.812672 0.500000
vt 0.125000 0.562500
vt 0.812672 0.750000
vt 0.625000 0.937672
vt 0.375000 0.937672
vt 0.000000 0.000000
s 0
f 120/135/27 116/136/27 94/137/27 103/138/27
f 130/139/28 117/140/28 93/141/28 125/142/28
f 101/143/29 103/144/29 94/145/29 93/146/29
f 122/147/30 124/148/30 92/149/30 91/150/30
f 129/151/28 111/152/28 99/153/28 126/154/28
f 128/155/27 106/156/27 96/157/27 127/158/27
f 112/159/28 107/160/28 97/161/28 105/162/28
f 107/160/31 109/163/31 98/164/31 97/161/31
f 114/165/32 118/166/32 96/167/32 95/168/32
f 111/152/28 112/159/28 105/162/28 99/153/28
f 109/163/27 113/169/27 104/170/27 98/164/27
f 117/140/28 121/171/28 101/172/28 93/141/28
f 91/150/30 92/149/30 100/173/30 102/174/30
f 91/175/28 102/176/28 112/159/28 111/152/28
f 100/177/27 92/178/27 110/179/27 113/169/27
f 122/180/28 91/175/28 111/152/28 129/151/28
f 95/168/32 96/167/32 106/181/32 108/182/32
f 99/153/28 105/162/28 121/171/28 117/140/28
f 98/164/27 104/170/27 120/135/27 115/183/27
f 126/154/28 99/153/28 117/140/28 130/139/28
f 127/158/27 96/157/27 118/184/27 131/185/27
f 105/162/28 97/161/28 119/186/28 121/171/28
f 97/161/31 98/164/31 115/183/31 119/186/31
f 95/187/28 126/154/28 130/139/28 114/188/28
f 92/178/27 124/189/27 128/155/27 110/179/27
f 108/190/28 129/151/28 126/154/28 95/187/28
f 116/136/27 131/185/27 123/191/27 94/137/27
f 93/146/29 94/145/29 123/192/29 125/193/29
f 102/174/33 100/173/33 109/163/33 107/160/33
f 108/182/34 106/181/34 124/148/34 122/147/34
f 114/165/35 125/193/35 123/192/35 118/166/35
f 101/143/36 119/186/36 115/183/36 103/144/36
f 128/155/27 124/189/27 106/181/27
f 103/144/27 115/183/27 120/135/27
f 131/185/27 118/166/27 123/191/27
f 113/169/27 109/163/27 100/173/27
f 129/151/28 108/182/28 122/180/28
f 114/165/28 130/139/28 125/193/28
f 121/171/28 119/186/28 101/143/28
f 112/159/28 102/174/28 107/160/28
f 120/194/30 121/194/30 117/194/30 130/194/30 131/194/30 116/194/30
f 113/194/32 112/194/32 105/194/32 121/194/32 120/194/32 104/194/32
f 112/194/29 113/194/29 110/194/29 128/194/29 129/194/29 111/194/29
f 128/194/31 127/194/31 131/194/31 130/194/31 126/194/31 129/194/31
o Cube.004
v -0.489001 -0.879195 0.489001
v -0.489001 8.963256 0.489001
v -0.489001 -0.879195 -0.489001
v -0.489001 8.963256 -0.489001
v 0.489001 -0.879195 0.489001
v 0.489001 8.963256 0.489001
v 0.489001 -0.879195 -0.489001
v 0.489001 8.963256 -0.489001
vn -1.0000 -0.0000 -0.0000
vn -0.0000 -0.0000 -1.0000
vn 1.0000 -0.0000 -0.0000
vn -0.0000 -0.0000 1.0000
vn -0.0000 -1.0000 -0.0000
vn -0.0000 1.0000 -0.0000
vt 0.375000 0.000000
vt 0.625000 0.000000
vt 0.625000 0.250000
vt 0.375000 0.250000
vt 0.625000 0.500000
vt 0.375000 0.500000
vt 0.625000 0.750000
vt 0.375000 0.750000
vt 0.625000 1.000000
vt 0.375000 1.000000
vt 0.125000 0.500000
vt 0.125000 0.750000
vt 0.875000 0.500000
vt 0.875000 0.750000
s 0
f 132/195/37 133/196/37 135/197/37 134/198/37
f 134/198/38 135/197/38 139/199/38 138/200/38
f 138/200/39 139/199/39 137/201/39 136/202/39
f 136/202/40 137/201/40 133/203/40 132/204/40
f 134/205/41 138/200/41 136/202/41 132/206/41
f 139/199/42 135/207/42 133/208/42 137/201/42
